# xmcd CD database file
#
# Track frame offsets:
#	150
#	16732
#	30376
#	52452
#	68066
#	82003
#	100397
#	113062
#	131766
#	142064
#	154193
#	166682
#	180397
#	194868
#	215022
#	238997
#	250983
#	271385
#	285791
#	296114
#	308189
#
# Disc length: 4332 seconds
#
# Revision: 0
# Processed by: cddbd v1.4PL0 Copyright (c) Steve Scherf et al.
# Submitted via: CDex 1.40Beta6
#
DISCID=4010ea15
DTITLE=Various Artist - Country And Stuff
DYEAR=2001
DGENRE=Country
TTITLE0=Little Texas - A Night I'll Never Remeber
TTITLE1=Little Texas - Hit Country Song
TTITLE2=Alabama - Pass It On Down
TTITLE3=Alabama - Down Home
TTITLE4=Alabama - Moonlight Lounge
TTITLE5=Alabama - Ain't Got No Business Doin Business Today
TTITLE6=Trisha Yearwood - X X X's and O O O's
TTITLE7=Trisha Yearwood - She's In Love With The Boy
TTITLE8=Hank Wiliams, Jr - All My Rowdy Freinds Are Coming Over To Wath Mond
TTITLE8=ay Night Football
TTITLE9=Hank Williams, Jr - Practice What You Preach
TTITLE10=Dwight Yoakam - Honky Tonk Man
TTITLE11=Dwight Yoakam - Guitars, Cadilacs, Etc., Etc.
TTITLE12=Dwight Yoakam - Heartaches By The Number
TTITLE13=Lynyrd Skynyrd '91 - Smokestack Lightning
TTITLE14=Lynyrd Skynyrd '91 - Keeping The Faith
TTITLE15=X T - Looking For Love
TTITLE16=Legend - Friendly Fire
TTITLE17=War - Low Rider
TTITLE18=Runaways - Cherry Bomb
TTITLE19=Black Oak Arkansas - Jim Dandy
TTITLE20=Rick Derringer - Rock and Roll Hochie Koo
EXTD=
EXTT0=
EXTT1=
EXTT2=
EXTT3=
EXTT4=
EXTT5=
EXTT6=
EXTT7=
EXTT8=
EXTT9=
EXTT10=
EXTT11=
EXTT12=
EXTT13=
EXTT14=
EXTT15=
EXTT16=
EXTT17=
EXTT18=
EXTT19=
EXTT20=
PLAYORDER=
